<?xml version="1.0" encoding="utf-8"?>
<!-- Generator: Adobe Illustrator 16.0.3, SVG Export Plug-In . SVG Version: 6.00 Build 0)  -->
<!DOCTYPE svg PUBLIC "-//W3C//DTD SVG 1.1//EN" "http://www.w3.org/Graphics/SVG/1.1/DTD/svg11.dtd">
<svg version="1.1" id="Layer_1" xmlns="http://www.w3.org/2000/svg" xmlns:xlink="http://www.w3.org/1999/xlink" x="0px" y="0px"
	 width="58.74px" height="54.701px" viewBox="0 0.299 58.74 54.701" enable-background="new 0 0.299 58.74 54.701"
	 xml:space="preserve">
<g>
	
		<image overflow="visible" opacity="0.75" width="90" height="86" xlink:href="CCB8A752284E071C.png"  transform="matrix(1 0 0 1 -15.5 -15.5)">
	</image>
	<g>
		<g>
			<path fill="#FFFFFF" d="M2.374,21.301c-1.266,0.486-2.162,1.623-2.342,2.967c-0.178,1.346,0.394,2.677,1.489,3.474l11.989,8.722
				L56.097,2.961L18.44,40.058l16.391,11.926c1.045,0.76,2.389,0.988,3.631,0.609c1.237-0.376,2.221-1.313,2.665-2.525L58.659,2.076
				c0.178-0.487,0.056-1.033-0.314-1.396c-0.369-0.364-0.915-0.479-1.399-0.291L2.374,21.301z"/>
			<path fill="#FFFFFF" d="M10.664,39.365l0.102,0.556l2.327,12.721c0.173,0.945,0.805,1.739,1.684,2.121
				c0.88,0.381,1.893,0.3,2.698-0.219c3.242-2.091,7.475-4.866,7.359-5.027L10.664,39.365z"/>
		</g>
	</g>
</g>
</svg>
