<?xml version="1.0" encoding="utf-8"?>
<!-- Generator: Adobe Illustrator 16.0.3, SVG Export Plug-In . SVG Version: 6.00 Build 0)  -->
<!DOCTYPE svg PUBLIC "-//W3C//DTD SVG 1.1//EN" "http://www.w3.org/Graphics/SVG/1.1/DTD/svg11.dtd">
<svg version="1.1" id="Icons" xmlns="http://www.w3.org/2000/svg" xmlns:xlink="http://www.w3.org/1999/xlink" x="0px" y="0px"
	 width="121px" height="121px" viewBox="-10.5 -10.5 121 121" enable-background="new -10.5 -10.5 121 121" xml:space="preserve">
<g id="Facebook__x28_alt_x29_">
	
		<image overflow="visible" opacity="0.75" width="101" height="100" xlink:href="1297A5D75599BBBD.png"  transform="matrix(1 0 0 1 -0.5 -0.5)">
	</image>
	<g>
		<path fill="#FFFFFF" d="M84.666,26.224c0-6.072-5.481-11.556-11.556-11.556H26.889c-6.073,0-11.555,5.484-11.555,11.556v46.22
			C15.333,78.516,20.815,84,26.89,84H50V57.809h-8.474V46.252H50V41.75c0-7.765,5.83-14.757,13-14.757h9.34v11.555H63
			c-1.022,0-2.216,1.241-2.216,3.1v4.604H72.34v11.557H60.784V84H73.11c6.074,0,11.556-5.484,11.556-11.557V26.224z"/>
	</g>
</g>
</svg>
