<?xml version="1.0" encoding="utf-8"?>
<!-- Generator: Adobe Illustrator 16.0.3, SVG Export Plug-In . SVG Version: 6.00 Build 0)  -->
<!DOCTYPE svg PUBLIC "-//W3C//DTD SVG 1.1//EN" "http://www.w3.org/Graphics/SVG/1.1/DTD/svg11.dtd">
<svg version="1.1" id="Capa_1" xmlns="http://www.w3.org/2000/svg" xmlns:xlink="http://www.w3.org/1999/xlink" x="0px" y="0px"
	 width="85px" height="85px" viewBox="-15.125 -14.625 85 85" enable-background="new -15.125 -14.625 85 85" xml:space="preserve">
<g>
	
		<image overflow="visible" opacity="0.75" enable-background="new    " width="85" height="85" xlink:href="2FF4DD5F70665692.png"  transform="matrix(1 0 0 1 -15.125 -14.625)">
	</image>
	<g>
		<path fill="#FFFFFF" d="M46.973,0H6.778C3.035,0,0,3.035,0,6.777v40.194c0,3.743,3.035,6.778,6.778,6.778h40.195
			c3.741,0,6.776-3.035,6.776-6.778V6.777C53.75,3.035,50.715,0,46.973,0z M26.875,19c4.343,0,7.875,3.533,7.875,7.875
			c0,4.343-3.532,7.875-7.875,7.875c-4.342,0-7.875-3.532-7.875-7.875C19,22.533,22.533,19,26.875,19z M47.5,44.107
			c0,1.871-1.741,3.393-3.613,3.393H9.995c-1.873,0-3.745-1.521-3.745-3.393V27.161c0-1.871,1.872-3.411,3.745-3.411h1.889
			c0.356,0,0.695,0.154,0.931,0.421c0.235,0.268,0.345,0.625,0.299,0.978C13.04,25.714,13,26.29,13,26.875
			c0,7.65,6.224,13.875,13.875,13.875c7.65,0,13.875-6.225,13.875-13.875c0-0.585-0.04-1.161-0.113-1.726
			c-0.047-0.354,0.062-0.71,0.297-0.979c0.236-0.268,0.575-0.421,0.936-0.421h2.021c1.871,0,3.611,1.54,3.611,3.412L47.5,44.107
			L47.5,44.107z M47.501,12.86L47.501,12.86c-0.001,1.872-1.519,3.39-3.39,3.39h-3.221c-1.873,0-3.394-1.518-3.394-3.39V9.639
			c0-1.871,1.521-3.389,3.394-3.389h3.221c1.871,0,3.39,1.518,3.39,3.389V12.86z"/>
	</g>
</g>
</svg>
