<?xml version="1.0" encoding="utf-8"?>
<!-- Generator: Adobe Illustrator 16.0.3, SVG Export Plug-In . SVG Version: 6.00 Build 0)  -->
<!DOCTYPE svg PUBLIC "-//W3C//DTD SVG 1.1//EN" "http://www.w3.org/Graphics/SVG/1.1/DTD/svg11.dtd">
<svg version="1.1" id="Layer_1" xmlns="http://www.w3.org/2000/svg" xmlns:xlink="http://www.w3.org/1999/xlink" x="0px" y="0px"
	 width="37.264px" height="32.312px" viewBox="0 0 37.264 32.312" enable-background="new 0 0 37.264 32.312" xml:space="preserve">
<g id="Capa_1" display="none">
	<g display="inline">
		<circle fill="#333333" cx="8.803" cy="4.363" r="2.415"/>
		<path fill="#333333" d="M-12.547,21.954l0.426,0.852c0.261,0.521,0.919,0.931,1.504,0.931h1.182c0.166,0,0.327,0.074,0.432,0.19
			c0.062,0.065,0.129,0.177,0.11,0.321c-0.062,0.537-0.263,1.248-0.883,1.577c-0.193,0.102-0.552,0.291-0.473,0.607
			c0.077,0.304,0.455,0.304,0.635,0.304h0.004c0.816,0,2.341-0.308,3.349-2.385c0.165-0.345,0.571-0.619,0.904-0.619h17.383
			c0.012,0.003,0.87,0.071,2.138,0.071c3.624,0,9.787-0.551,10.423-4.226c0.06-0.32-0.038-0.516-0.131-0.625
			c-0.212-0.253-0.618-0.271-0.984-0.032c-1.066,0.684-3.3,1.832-6.271,1.832H9.272v-6.065c0-0.512-0.317-0.963-0.794-1.141
			l-3.214-1.174l1.589-2.439l2.066,1.646c0.222,0.173,0.485,0.264,0.76,0.264c0.119,0,0.24-0.018,0.36-0.056l3.864-1.213
			c0.641-0.202,0.998-0.882,0.795-1.521c-0.198-0.642-0.884-0.995-1.52-0.796L9.928,9.282l-3.527-2.81
			C6.389,6.464,6.38,6.459,6.368,6.451c-0.037-0.028-0.073-0.05-0.11-0.071C6.228,6.364,6.196,6.342,6.162,6.327
			S6.089,6.298,6.049,6.283C6.013,6.269,5.975,6.257,5.937,6.248C5.901,6.24,5.864,6.235,5.828,6.228
			C5.784,6.222,5.741,6.217,5.697,6.215c-0.012,0-0.026-0.003-0.039-0.003L0.721,6.163l-3.493-2.308
			C-3.329,3.486-4.083,3.64-4.452,4.198C-4.82,4.76-4.668,5.51-4.108,5.88l3.794,2.503c0.192,0.127,0.422,0.197,0.653,0.2
			l2.615,0.026l-2.07,3.405l0.021,0.005c-0.008,0.017-0.019,0.028-0.024,0.049c-0.005,0.014-0.007,0.027-0.011,0.041
			c-0.014,0.039-0.021,0.083-0.031,0.124c-0.007,0.038-0.015,0.076-0.02,0.116c-0.005,0.033-0.005,0.069-0.005,0.106
			c-0.003,0.047-0.003,0.092,0.002,0.14c0.003,0.012,0,0.023,0.001,0.034l0.537,4.33l-4.361,2.056
			c-0.604,0.289-0.868,1.007-0.583,1.611c0.024,0.048,0.06,0.085,0.084,0.132h-8.302c-0.331,0-0.604,0.135-0.747,0.363
			C-12.698,21.354-12.696,21.656-12.547,21.954z M6.847,20.755h-7.858l4.192-1.976c0.475-0.222,0.75-0.725,0.688-1.246l-0.4-3.232
			l3.381,1.233L6.847,20.755L6.847,20.755z"/>
	</g>
</g>
<g id="Layer_2">
	<g>
		<path fill="#333333" d="M11.336,13.025l-3.79-1.183c-0.661-0.203-1.369,0.164-1.574,0.83c-0.206,0.664,0.163,1.369,0.827,1.576
			l4.28,1.331c0.122,0.04,0.247,0.058,0.373,0.058c0.199,0,0.396-0.049,0.574-0.14l2.382-1.219l1.188,4.094
			c-0.13,0.043-0.25,0.104-0.364,0.182l-2.377,1.621c-0.672,0.457-0.862,1.365-0.425,2.055l2.41,3.809l-2.679,0.408
			c-1.957,0.301-3.296,1.238-2.994,2.096c0.303,0.861,2.133,1.322,4.09,1.027l13.832-2.053c1.955-0.291,3.643-1.293,3.768-2.24
			c0.123-0.947-1.363-1.477-3.316-1.178l-2.598,0.396l-2.736-5.381c-0.016-0.031-0.037-0.061-0.055-0.096l-1.471-5.814l3.375-0.37
			c0.285-0.03,0.555-0.161,0.758-0.363l3.328-3.357c0.488-0.493,0.486-1.291-0.008-1.778c-0.49-0.488-1.287-0.486-1.779,0.006
			l-3.02,3.04l-3.4,0.37c-0.092,0.012-0.176,0.031-0.256,0.056l-5.686,0.978c-0.175,0.01-0.351,0.051-0.515,0.134L11.336,13.025z
			 M16.545,21.312h3.389l1.855,3.662l-3.693,0.562l-2.338-3.689L16.545,21.312z"/>
		<circle fill="#333333" cx="16.166" cy="8.229" r="2.518"/>
	</g>
</g>
<g id="Layer_3" display="none">
	<g display="inline">
		<path fill="#333333" d="M-4.358,14.352c0.217,0,0.436-0.058,0.634-0.171l5.113-2.955l1.195,2.687l-2.218,1.289
			c-0.46,0.271-0.741,0.761-0.737,1.292l0.023,4.237C-1.642,21.086-2.941,21.63-2.9,22.36c0.066,1.224,1.613,2.202,4.481,1.301
			c0.173-0.055,0.31-0.099,0.308-0.093c-0.001,0.006-0.016,0.156-0.026,0.335l-0.018,0.229c-0.014,0.181-0.14,0.42-0.24,0.563
			c-0.247,0.354-0.315,0.823-0.133,1.249c0.277,0.66,1.043,0.97,1.707,0.688c0.659-0.278,0.97-1.044,0.688-1.702
			c-0.034-0.088-0.08-0.162-0.129-0.233c-0.083-0.12-0.143-0.344-0.104-0.521c0.068-0.324,0.177-0.834,0.244-1.158
			c0.037-0.178,0.2-0.374,0.367-0.443c1.008-0.424,4.211-1.771,4.211-1.771l3.31-1.416c0.164-0.07,0.423-0.053,0.574,0.047
			l1.001,0.627c0.15,0.098,0.271,0.295,0.302,0.437c0.017,0.084,0.043,0.172,0.074,0.254c0.282,0.662,1.048,0.972,1.707,0.689
			c0.661-0.281,0.974-1.045,0.691-1.707c-0.182-0.428-0.565-0.703-0.991-0.771c-0.176-0.025-0.434-0.103-0.572-0.22l-0.205-0.146
			c0-0.122,0.16-0.197,0.313-0.315c0.2-0.156,0.571-0.252,0.752-0.461c2.574-1.427,2.877-3.209,2.053-4.103
			c-0.569-0.614-2.22,0.229-3.48,1.034l-2.076-2.684c-0.346-0.448-0.919-0.659-1.477-0.546L7.287,12.18L6.331,9.279
			C6.69,9.194,7.053,9.124,7.323,9.095l6.479-0.728c0.699-0.079,1.202-0.707,1.124-1.406c-0.079-0.697-0.71-1.199-1.402-1.122
			L7.041,6.57C6.31,6.65,5.24,6.902,4.548,7.152L2.727,7.81C2.08,8.045,1.095,8.485,0.449,8.832l-5.445,3.145
			c-0.606,0.354-0.813,1.131-0.464,1.737C-5.224,14.126-4.797,14.352-4.358,14.352z M14.679,19.647
			c0.313-0.134,0.683,0.014,0.815,0.33c0.135,0.313-0.012,0.685-0.33,0.815c-0.315,0.138-0.685-0.015-0.815-0.332
			C14.212,20.147,14.361,19.781,14.679,19.647z M2.937,25.983c-0.317,0.134-0.685-0.017-0.818-0.332
			c-0.134-0.316,0.015-0.684,0.332-0.817s0.682,0.016,0.815,0.329C3.402,25.483,3.255,25.847,2.937,25.983z M5.675,15.552
			l4.453-0.932l1.29,1.667l-4.135,1.751l-4.665,1.979l-0.015-2.686L5.675,15.552z"/>
		<circle fill="#333333" cx="1.704" cy="4.816" r="2.36"/>
	</g>
</g>
<g id="Layer_4" display="none">
	<path display="inline" fill="#333333" d="M20.705,11.841c0,1.728-1.533,3.132-3.419,3.132H2.749
		c0.011-0.449-0.063-0.897-0.227-1.327h11.97c-0.096-0.124-0.181-0.254-0.258-0.393c-0.291-0.466-0.497-1.036-0.497-1.72
		c0-0.903,0.36-1.618,0.803-2.153H-5.634c-0.9,0-1.633,0.957-1.633,2.131c0,0.646,0.225,1.219,0.571,1.607
		c-0.025,0.117-0.048,0.235-0.062,0.354c-0.15,0.35-0.241,0.71-0.276,1.075c-0.915-0.589-1.535-1.732-1.535-3.035
		c0-1.896,1.316-3.438,2.938-3.438h22.034c0.307,0,0.573,0.214,0.639,0.514c0.064,0.302-0.09,0.604-0.366,0.732
		c-0.012,0.006-1.628,0.779-1.628,2.214c0,1.425,1.605,2.159,1.622,2.165c0.012,0.005,0.021,0.014,0.027,0.021
		c0.191,0.046,0.389,0.077,0.593,0.077c1.239,0,2.246-0.878,2.246-1.956c0,0-0.016-0.487-0.318-0.713
		c-0.298-0.218-0.806-0.133-1.177-0.022c-0.03,0.011-0.534,0.204-0.433,0.539c0.096,0.311-0.08,0.638-0.395,0.731
		c-0.31,0.096-0.637-0.082-0.729-0.393c-0.321-1.057,0.543-1.774,1.2-1.999c0.944-0.277,1.692-0.205,2.244,0.209
		C20.687,10.765,20.708,11.734,20.705,11.841z M0.038,18.658l1.892,3.548c-1.832-0.562-2.198,2.539-2.198,2.539l-1.398-5.598
		c-0.182,0.033-0.364,0.052-0.548,0.049l-1.479,5.924c0,0-0.366-3.098-2.198-2.538l1.995-3.747
		c-1.222-0.306-2.145-1.356-2.257-2.646c-0.371-0.784-0.371-1.699,0-2.483c0.128-1.448,1.278-2.601,2.727-2.727
		c0.785-0.373,1.702-0.373,2.487,0c1.445,0.128,2.599,1.278,2.726,2.727c0.372,0.784,0.372,1.699,0,2.483
		C1.688,17.29,0.999,18.219,0.038,18.658z M0.047,14.948c0-1.233-1-2.232-2.23-2.232c-1.233,0-2.233,0.999-2.233,2.232
		c0,1.232,1,2.233,2.233,2.233C-0.953,17.182,0.047,16.179,0.047,14.948z M-2.185,13.723c-0.677,0-1.227,0.549-1.227,1.226
		c0,0.678,0.55,1.225,1.227,1.225c0.675,0,1.223-0.547,1.223-1.225C-0.962,14.272-1.51,13.723-2.185,13.723z"/>
</g>
<g id="Layer_5" display="none">
	<path display="inline" fill="#333333" d="M6.404,10.216c0,0-2.725-0.119-4.193-1.74C0.743,6.856-0.422,5.616-0.422,5.616
		S-1.08,4.653-1.763,5.337s-0.153,1.013-0.153,1.013l2.858,3.135c0.874,1.504,1.073,4.711,1.076,4.813l4.385,0.003l0,0L6.404,10.216
		L6.404,10.216z"/>
	<path display="inline" fill="#333333" d="M-1.219,6.06c0,0,6.163-3.04,5.016-3.985C2.651,1.131-1.42,5.887-1.42,5.887L-1.219,6.06z
		"/>
	<path display="inline" fill="#333333" d="M-1.334,5.763c0,0-6.163,3.037-5.017,3.983c1.146,0.944,5.217-3.812,5.217-3.812
		L-1.334,5.763z"/>
	<path display="inline" fill="#333333" d="M6.328,10.216c0,0,2.729-0.119,4.197-1.74c1.468-1.618,2.631-2.858,2.631-2.858
		s0.658-0.963,1.342-0.279c0.685,0.684,0.15,1.013,0.15,1.013l-2.857,3.135c-0.875,1.504-1.075,4.711-1.075,4.813l-4.388,0.003l0,0
		V10.216z"/>
	<path display="inline" fill="#333333" d="M13.955,6.06c0,0-6.163-3.04-5.017-3.985c1.145-0.944,5.217,3.812,5.217,3.812
		L13.955,6.06z"/>
	<path display="inline" fill="#333333" d="M14.07,5.763c0,0,6.162,3.037,5.016,3.983c-1.146,0.944-5.217-3.812-5.217-3.812
		L14.07,5.763z"/>
	<path display="inline" fill="#333333" d="M6.404,18.396c0,0-2.725,0.118-4.193,1.741c-1.468,1.615-2.632,2.858-2.632,2.858
		s-0.658,0.957-1.341,0.274c-0.683-0.684-0.153-1.012-0.153-1.012l2.858-3.137c0.874-1.503,1.073-4.709,1.076-4.812l4.385-0.005l0,0
		V18.396z"/>
	<path display="inline" fill="#333333" d="M-1.219,22.552c0,0,6.163,3.035,5.016,3.981C2.651,27.48-1.42,22.722-1.42,22.722
		L-1.219,22.552z"/>
	<path display="inline" fill="#333333" d="M-1.334,22.846c0,0-6.163-3.04-5.017-3.983c1.146-0.945,5.217,3.812,5.217,3.812
		L-1.334,22.846z"/>
	<path display="inline" fill="#333333" d="M6.328,18.396c0,0,2.729,0.118,4.197,1.741c1.468,1.615,2.631,2.858,2.631,2.858
		s0.658,0.958,1.342,0.276c0.685-0.685,0.15-1.01,0.15-1.01l-2.858-3.139c-0.874-1.503-1.073-4.71-1.077-4.812l-4.385-0.005l0,0
		V18.396L6.328,18.396z"/>
	<path display="inline" fill="#333333" d="M13.955,22.552c0,0-6.163,3.035-5.017,3.981c1.145,0.946,5.217-3.812,5.217-3.812
		L13.955,22.552z"/>
	<path display="inline" fill="#333333" d="M14.07,22.846c0,0,6.162-3.04,5.016-3.983c-1.146-0.945-5.217,3.812-5.217,3.812
		L14.07,22.846z"/>
</g>
<g id="Layer_6" display="none">
	<g display="inline">
		<path fill="#333333" d="M15.228,4.767V4.124c0-5.354-4.339-9.694-9.696-9.694c-5.354,0-9.695,4.341-9.695,9.694v0.302
			c0,0.112,0.001,0.228,0.006,0.342l0,0c0,2.753,1.914,5.45,4.004,7.576c0.035-0.126,0.091-0.243,0.159-0.355
			c0.164-0.253,0.398-0.442,0.678-0.551c-1.9-1.935-3.561-4.311-3.608-6.668l-0.008-0.474c0-0.944,0.765-1.711,1.71-1.711
			c0.946,0,1.712,0.768,1.712,1.711v0.462C0.486,4.868,0.454,6.75,0.984,9.073c0.19,0.841,0.434,1.633,0.725,2.367
			c0.42,0.17,0.75,0.537,0.853,0.998c0.123,0.558,0.522,1.081,0.974,1.271c0.088,0.036,0.167,0.059,0.229,0.059
			c0.02,0,0.035-0.002,0.054-0.007c-0.551-0.48-0.902-1.188-0.902-1.976c0-0.083,0.004-0.164,0.011-0.244
			c-1.41-3.208-1.354-6.711-1.354-6.76L1.569,4.297c0-0.942,0.765-1.711,1.711-1.711c0.904,0,1.642,0.7,1.706,1.587v5.057
			C5.163,9.19,5.345,9.17,5.532,9.17c0.188,0,0.37,0.021,0.547,0.06V4.18c0.062-0.892,0.8-1.595,1.706-1.595
			c0.945,0,1.712,0.769,1.712,1.712L9.491,4.782c0,0.052,0.058,3.549-1.353,6.757c0.009,0.082,0.012,0.164,0.012,0.249
			c0,0.788-0.353,1.496-0.901,1.978c0.019,0.005,0.033,0.006,0.057,0.006c0.061,0,0.14-0.021,0.229-0.06
			c0.45-0.188,0.851-0.712,0.973-1.271c0.104-0.46,0.431-0.825,0.85-0.996c0.291-0.736,0.534-1.527,0.725-2.369
			c0.495-2.159,0.5-3.935,0.496-4.265l0,0V4.299c0-0.944,0.766-1.713,1.711-1.713C13.232,2.586,14,3.354,14,4.299V4.77h-0.001
			c0,2.344-1.711,4.733-3.611,6.67c0.275,0.105,0.51,0.297,0.674,0.551c0.071,0.111,0.127,0.234,0.164,0.36
			C13.315,10.224,15.23,7.522,15.228,4.767L15.228,4.767L15.228,4.767z"/>
		<circle fill="#333333" cx="5.532" cy="11.769" r="1.989"/>
		<path fill="#333333" d="M10.044,11.97c-0.417-0.094-0.83,0.172-0.92,0.587c-0.165,0.757-0.705,1.444-1.342,1.715
			c-0.35,0.146-0.663,0.143-0.926-0.021c-0.02-0.011-0.037-0.02-0.057-0.028c-0.231-0.165-0.5-0.283-0.771-0.353l-0.495,0.5
			l-0.479-0.502c-0.001,0-0.005,0-0.006,0c-0.277,0.066-0.554,0.189-0.792,0.361c-0.016,0.007-0.027,0.015-0.045,0.023
			c-0.262,0.161-0.572,0.167-0.925,0.021c-0.637-0.271-1.175-0.96-1.343-1.715c-0.091-0.417-0.503-0.682-0.919-0.587
			c-0.418,0.093-0.68,0.505-0.588,0.919c0.272,1.239,1.157,2.342,2.248,2.805c0.271,0.117,0.546,0.188,0.814,0.217v3.04
			c0,0.285,0.072,0.54,0.198,0.77l-0.707,6.001c-0.059,0.496,0.298,0.95,0.8,1.011C3.829,26.737,3.864,26.74,3.9,26.74
			c0.456,0,0.851-0.343,0.905-0.807l0.614-5.229c0.037,0.002,0.076,0.003,0.114,0.003c0.04,0,0.078-0.001,0.117-0.003l0.616,5.229
			c0.055,0.464,0.447,0.807,0.902,0.807c0.036,0,0.073-0.003,0.109-0.008c0.5-0.061,0.858-0.515,0.798-1.011L7.372,19.72
			c0.127-0.229,0.2-0.484,0.2-0.77v-3.04c0.27-0.028,0.543-0.1,0.816-0.217c1.09-0.463,1.973-1.563,2.244-2.805
			C10.722,12.474,10.461,12.061,10.044,11.97z"/>
	</g>
</g>
<g id="Layer_8" display="none">
	<path display="inline" fill="#333333" d="M8.021,19.58c0.086,0,0.162,0.031,0.226,0.096c0.064,0.063,0.096,0.141,0.096,0.229v0.729
		c0,0.104-0.03,0.187-0.096,0.248c-0.062,0.063-0.139,0.098-0.226,0.098h-4.19c-0.229,0-0.343-0.113-0.343-0.348v-0.728
		c0-0.09,0.032-0.164,0.096-0.229c0.063-0.062,0.148-0.096,0.247-0.096H8.02L8.021,19.58L8.021,19.58z M8.021,17.498
		c0.086,0,0.162,0.032,0.226,0.096c0.065,0.063,0.096,0.146,0.096,0.245v0.731c0,0.088-0.03,0.162-0.096,0.228
		c-0.062,0.064-0.139,0.097-0.226,0.097h-4.19c-0.099,0-0.184-0.031-0.247-0.097c-0.062-0.062-0.096-0.14-0.096-0.228v-0.731
		c0-0.228,0.115-0.343,0.343-0.343H8.02L8.021,17.498L8.021,17.498z M12.341,10.836c-0.198-0.028-0.373,0.003-0.515,0.098
		c-0.144,0.094-0.229,0.22-0.258,0.376c-0.03,0.155,0.009,0.31,0.118,0.45c0.104,0.144,0.261,0.229,0.461,0.259l1.783,0.277
		c0.198,0.029,0.373-0.003,0.516-0.096c0.143-0.094,0.228-0.228,0.258-0.396c0.027-0.159-0.015-0.308-0.129-0.441
		c-0.115-0.135-0.266-0.22-0.452-0.247L12.341,10.836L12.341,10.836z M12.147,6.776c-0.173,0.071-0.297,0.187-0.376,0.343
		c-0.079,0.158-0.082,0.315-0.014,0.475c0.073,0.156,0.191,0.263,0.356,0.312c0.165,0.051,0.332,0.041,0.505-0.032l1.652-0.752
		c0.187-0.071,0.313-0.187,0.389-0.343c0.069-0.159,0.069-0.315,0-0.473c-0.073-0.159-0.189-0.263-0.354-0.312
		c-0.163-0.05-0.333-0.033-0.507,0.055L12.147,6.776L12.147,6.776z M9.353,4.024C9.239,4.183,9.195,4.35,9.224,4.529
		c0.028,0.179,0.113,0.312,0.258,0.396c0.143,0.09,0.297,0.105,0.461,0.057c0.165-0.05,0.305-0.153,0.42-0.312l0.989-1.521
		c0.098-0.159,0.141-0.323,0.118-0.495c-0.023-0.173-0.104-0.31-0.249-0.408c-0.145-0.085-0.298-0.104-0.463-0.053
		c-0.166,0.05-0.305,0.151-0.42,0.311L9.353,4.024L9.353,4.024z M-0.487,10.836c0.186-0.028,0.354,0.003,0.505,0.098
		c0.15,0.094,0.238,0.22,0.268,0.376c0.03,0.155-0.014,0.31-0.129,0.45c-0.114,0.144-0.271,0.229-0.471,0.259l-1.783,0.277
		c-0.188,0.029-0.355-0.003-0.506-0.096c-0.151-0.094-0.239-0.228-0.27-0.396c-0.028-0.159,0.016-0.308,0.129-0.441
		c0.114-0.134,0.271-0.22,0.475-0.247L-0.487,10.836L-0.487,10.836z M-0.294,6.776c0.172,0.071,0.296,0.187,0.376,0.343
		c0.078,0.157,0.082,0.315,0.01,0.474C0.022,7.749-0.101,7.855-0.272,7.904c-0.17,0.051-0.345,0.041-0.518-0.032L-2.441,7.12
		c-0.175-0.071-0.296-0.187-0.376-0.343C-2.897,6.618-2.9,6.461-2.829,6.303c0.071-0.159,0.189-0.263,0.354-0.312
		s0.34-0.033,0.524,0.055L-0.294,6.776L-0.294,6.776z M2.479,4.024C2.593,4.183,2.637,4.35,2.607,4.529
		C2.58,4.708,2.492,4.841,2.35,4.926C2.221,5.014,2.07,5.031,1.898,4.981C1.728,4.93,1.59,4.827,1.489,4.668L0.501,3.145
		C0.385,2.986,0.342,2.822,0.372,2.65c0.029-0.17,0.114-0.31,0.257-0.408c0.129-0.085,0.279-0.104,0.452-0.053
		C1.253,2.24,1.389,2.343,1.489,2.5L2.479,4.024L2.479,4.024z M6.538,3.468c0,0.2-0.056,0.364-0.171,0.493
		c-0.115,0.128-0.259,0.194-0.43,0.194c-0.158,0-0.294-0.065-0.409-0.194c-0.115-0.13-0.173-0.293-0.173-0.493V1.662
		c0-0.2,0.058-0.366,0.172-0.495c0.115-0.129,0.251-0.192,0.409-0.192c0.171,0,0.313,0.063,0.429,0.192s0.171,0.294,0.171,0.495
		v1.806H6.538z M10.707,9.246c0,0.03-0.003,0.05-0.011,0.065c-0.007,0.015-0.011,0.037-0.011,0.063V9.44
		c0,0.258-0.036,0.546-0.107,0.858c-0.099,0.548-0.29,1.108-0.568,1.688c-0.279,0.579-0.585,1.2-0.911,1.859
		c-0.219,0.431-0.367,0.818-0.452,1.17c-0.088,0.353-0.155,0.653-0.205,0.913c-0.05,0.258-0.105,0.464-0.163,0.612
		c-0.06,0.15-0.164,0.241-0.321,0.271H3.873c-0.157-0.027-0.264-0.118-0.323-0.271c-0.059-0.149-0.108-0.354-0.16-0.612
		c-0.053-0.26-0.118-0.562-0.205-0.913c-0.085-0.352-0.236-0.741-0.45-1.17c-0.329-0.658-0.635-1.278-0.913-1.859
		c-0.278-0.579-0.469-1.141-0.57-1.688C1.22,10.158,1.2,10.014,1.185,9.872L1.142,9.441V9.247c0-0.688,0.116-1.291,0.354-1.806
		C1.733,6.924,2.061,6.489,2.485,6.13C2.909,5.774,3.41,5.505,3.991,5.325c0.581-0.179,1.213-0.269,1.9-0.269h0.021h0.022
		c0.687,0,1.32,0.091,1.899,0.269c0.579,0.179,1.08,0.447,1.504,0.807c0.424,0.358,0.757,0.794,1.001,1.312
		C10.585,7.957,10.707,8.557,10.707,9.246z"/>
</g>
<g id="Layer_9" display="none">
	<path display="inline" fill="#333333" d="M-2.278,19.442c0.271,0,0.487-0.221,0.487-0.486v-8.38c0-0.267-0.219-0.487-0.487-0.487
		h-1.867c-0.271,0-0.486,0.224-0.486,0.487v8.38c0,0.271,0.218,0.486,0.486,0.486H-2.278z"/>
	<path display="inline" fill="#333333" d="M17.576,20.258H-5.863c-0.269,0-0.484,0.219-0.484,0.485v1.26
		c0,0.274,0.22,0.486,0.484,0.486h23.438c0.271,0,0.484-0.222,0.484-0.486v-1.26C18.059,20.475,17.845,20.258,17.576,20.258z"/>
	<path display="inline" fill="#333333" d="M3.769,19.442c0.267,0,0.482-0.221,0.482-0.486v-8.38c0-0.267-0.219-0.487-0.482-0.487
		h-1.87c-0.271,0-0.484,0.224-0.484,0.487v8.38c0,0.271,0.221,0.486,0.484,0.486H3.769z"/>
	<path display="inline" fill="#333333" d="M15.859,19.442c0.267,0,0.483-0.221,0.483-0.486v-8.38c0-0.267-0.223-0.487-0.483-0.487
		h-1.871c-0.272,0-0.485,0.224-0.485,0.487v8.38c0,0.271,0.216,0.486,0.485,0.486H15.859z"/>
	<path display="inline" fill="#333333" d="M17.721,7.347L7.73-0.92c-1.032-0.854-2.723-0.854-3.752,0L-6.01,7.347
		c-1.036,0.854-0.781,1.556,0.56,1.556h22.613C18.5,8.902,18.751,8.204,17.721,7.347z M5.854,6.889
		c-1.047,0-1.896-0.853-1.896-1.898s0.851-1.894,1.896-1.894c1.054,0,1.896,0.848,1.896,1.894C7.75,6.036,6.904,6.889,5.854,6.889z"
		/>
	<path display="inline" fill="#333333" d="M9.812,19.442c0.27,0,0.483-0.221,0.483-0.486v-8.38c0-0.267-0.222-0.487-0.483-0.487
		H7.941c-0.271,0-0.485,0.224-0.485,0.487v8.38c0,0.271,0.224,0.486,0.485,0.486H9.812z"/>
</g>
<g id="Layer_10" display="none">
	<g display="inline">
		<path fill="#333333" d="M13.538,15.283c0.181-0.291,0.28-0.806,0.223-1.142"/>
		<path fill="#333333" d="M10.006,16.919"/>
		<path fill="#333333" d="M11.771,6.467l-0.566,2.312c-0.089,0.375,0.138,0.749,0.511,0.842c0.127,0.032,0.257,0.025,0.37-0.011
			c0.228-0.07,0.409-0.253,0.466-0.5l0.194-0.788l4.191-0.614l6.619,0.796c0.101,0.013,0.195,0.001,0.291-0.027
			c0.252-0.079,0.445-0.301,0.479-0.581c0.049-0.382-0.225-0.728-0.601-0.773l-6.503-0.779l-3.298-2.85l0.14-0.567
			c0.094-0.37-0.142-0.744-0.507-0.84c-0.379-0.092-0.752,0.138-0.845,0.51l-0.37,1.519 M15.329,6.536L13.106,6.86l0.454-1.854
			L15.329,6.536z"/>
	</g>
	<g display="inline">
		<path fill="#333333" d="M-9.714,19.774l0.494,0.786c0.303,0.483,0.851,0.793,1.251,0.695l0.809-0.189
			c0.111-0.027,0.24,0.019,0.344,0.126c0.057,0.055,0.128,0.153,0.149,0.302c0.087,0.554,0.119,1.304-0.229,1.736
			c-0.107,0.135-0.308,0.382-0.179,0.688c0.124,0.299,0.387,0.231,0.509,0.207h0.001c0.56-0.133,1.526-0.689,1.726-2.952
			c0.032-0.363,0.245-0.714,0.471-0.767l11.904-2.812c0.008,0.004,0.611-0.07,1.481-0.272c2.479-0.583,6.569-2.138,6.128-5.947
			c-0.033-0.334-0.148-0.518-0.239-0.609c-0.201-0.225-0.488-0.176-0.683,0.123c-0.565,0.865-1.822,2.383-3.854,2.862l-5.428,1.279
			c0,0-4.143,0.997-5.027,1.204c-1.551,0.365-3.752,0.827-3.722,0.865l-5.685,1.339c-0.227,0.058-0.383,0.233-0.425,0.493
			C-9.961,19.189-9.887,19.496-9.714,19.774z M3.278,15.426l-5.382,1.271"/>
	</g>
	<g display="inline">
		<path fill="#333333" d="M-9.256,10.736c0.234,0.032,0.483,0.001,0.715-0.094l5.977-2.49l0.919,3.093l-2.595,1.087
			c-0.535,0.227-0.911,0.723-0.983,1.298L-5.8,18.239c-1.458,0.206-2.945,0.612-3.007,1.408C-8.906,20.984,6.231,17.3,6.231,17.3
			c0.191-0.054,5.88-4.222,4.39-3.521l-1.875-3.21C8.43,10.03,7.84,9.719,7.218,9.766l-3.512,0.267L3.084,6.741
			c0.403-0.04,0.809-0.065,1.103-0.061l7.144,0.132c0.771,0.015,1.41-0.6,1.419-1.369c0.016-0.771-0.597-1.402-1.364-1.417
			L4.236,3.898C3.432,3.88,2.231,4.001,1.443,4.176l-2.072,0.458c-0.736,0.162-1.87,0.502-2.62,0.787l-6.362,2.646
			c-0.713,0.292-1.047,1.108-0.753,1.822C-10.164,10.366-9.731,10.674-9.256,10.736z M1.477,13.462l4.973-0.379l1.164,1.995
			l-4.741,1.32l-5.35,1.482l0.36-2.915L1.477,13.462z"/>
		<circle fill="#333333" cx="-1.314" cy="1.233" r="2.585"/>
	</g>
</g>
</svg>
