<?xml version="1.0" encoding="utf-8"?>
<!-- Generator: Adobe Illustrator 16.0.3, SVG Export Plug-In . SVG Version: 6.00 Build 0)  -->
<!DOCTYPE svg PUBLIC "-//W3C//DTD SVG 1.1//EN" "http://www.w3.org/Graphics/SVG/1.1/DTD/svg11.dtd">
<svg version="1.1" id="Capa_1" xmlns="http://www.w3.org/2000/svg" xmlns:xlink="http://www.w3.org/1999/xlink" x="0px" y="0px"
	 width="128px" height="128px" viewBox="0 0 128 128" enable-background="new 0 0 128 128" xml:space="preserve">
<path d="M54.4,20.7L32.5,37.1h-20c-3.3,0-6,2.7-6,6v41.8c0,3.3,2.7,6,6,6h20L54.4,107.3c4,3,9.6,0.2,9.6-4.8v-77
	C64,20.5,58.3,17.7,54.4,20.7z"/>
<path d="M83.8,30.5c-2.7-2.7-7.2-2.7-9.899,0s-2.699,7.2,0,9.9c13,13,13,34.1,0,47.1c-2.699,2.7-2.699,7.2,0,9.9
	c1.399,1.398,3.199,2,4.899,2s3.601-0.7,4.9-2.102C102.3,79,102.3,49,83.8,30.5z"/>
<path d="M91.6,14.8c-2.699,2.7-2.699,7.2,0,9.9C102.1,35.2,107.9,49.1,107.9,64c0,14.9-5.801,28.8-16.301,39.3
	c-2.699,2.7-2.699,7.2,0,9.9c1.399,1.399,3.199,2.1,4.899,2.1c1.8,0,3.601-0.7,4.899-2c13.101-13.1,20.399-30.6,20.399-49.2
	s-7.2-36-20.399-49.2C98.8,12.1,94.4,12.1,91.6,14.8z"/>
</svg>
