<?xml version="1.0" encoding="utf-8"?>
<!-- Generator: Adobe Illustrator 16.0.3, SVG Export Plug-In . SVG Version: 6.00 Build 0)  -->
<!DOCTYPE svg PUBLIC "-//W3C//DTD SVG 1.1//EN" "http://www.w3.org/Graphics/SVG/1.1/DTD/svg11.dtd">
<svg version="1.1" id="Layer_1" xmlns="http://www.w3.org/2000/svg" xmlns:xlink="http://www.w3.org/1999/xlink" x="0px" y="0px"
	 width="244.715px" height="63.23px" viewBox="23.769 8.648 244.715 63.23" enable-background="new 23.769 8.648 244.715 63.23"
	 xml:space="preserve">
<path fill="#FFFFFF" d="M74.538,33.602c0,3.002-1.86,5.232-5.579,6.696c-2.889,1.14-6.411,1.716-10.57,1.716H41.339
	c-4.471,0-8.225-0.52-11.275-1.547c-4.193-1.41-6.295-3.659-6.295-6.754V17.16c0-2.973,2.137-5.169,6.423-6.594
	c3.384-1.066,7.115-1.604,11.205-1.604h6.769c1.826,0,2.738,0.814,2.738,2.446c0,1.639-0.912,2.463-2.738,2.463h-2.067
	c-0.197,0-0.311-0.007-0.335-0.027c-0.519-0.017-0.982-0.025-1.386-0.035c-0.405-0.01-0.739-0.019-0.981-0.019
	c-8.075,0-12.119,1.119-12.119,3.359v16.537c0,2.242,3.385,3.364,10.154,3.364H58.4c1.617,0,3.35-0.241,5.175-0.732
	c2.298-0.618,3.453-1.444,3.453-2.5v-3.517h-10.55c-1.392,0-2.531-1.191-2.531-2.647c0-1.458,1.139-2.65,2.531-2.65h12.687
	c0.641-0.066,1.561-0.059,2.74-0.059c1.755,0,2.633,0.705,2.633,2.122V33.602"/>
<path fill="#FFFFFF" d="M118.84,33.769V23.752c0-2.059-2.911-3.117-8.802-3.117H98.394c-2.149,0-4.09,0.223-5.823,0.668
	c-2.426,0.67-3.604,1.616-3.604,2.894v9.571c0,1.224,1.248,2.171,3.673,2.727c1.664,0.389,3.604,0.558,5.823,0.558h11.575
	c1.871,0,3.673-0.223,5.336-0.614C117.662,35.829,118.84,34.938,118.84,33.769 M126.048,33.769c0,3.006-1.802,5.175-5.476,6.513
	c-2.563,1.058-6.03,1.614-10.327,1.614H98.394c-3.951,0-7.486-0.556-10.675-1.614c-3.95-1.392-5.891-3.563-5.891-6.513v-9.571
	c0-2.894,1.941-5.118,5.823-6.62c2.911-1.171,6.444-1.726,10.674-1.726h11.92c10.535,0,15.803,2.727,15.803,8.292V33.769z"/>
<path fill="#FFFFFF" d="M212.442,18.521c0,1.447-1.11,2.171-3.188,2.171c-0.277,0-0.693,0-1.247-0.057h-1.318
	c-5.476,0-8.18,1.058-8.18,3.285v15.804c0,1.058-0.553,1.725-1.522,2.004c-0.418,0.112-1.456,0.167-3.119,0.167
	c-1.664,0-2.496-0.724-2.496-2.171V23.92c0-3.451,2.149-5.733,6.517-6.956c2.634-0.781,6.584-1.114,11.853-1.114
	C211.543,15.851,212.442,16.74,212.442,18.521"/>
<path fill="#FFFFFF" d="M254.388,33.769V23.752c0-2.059-2.911-3.117-8.801-3.117h-11.645c-2.15,0-4.089,0.223-5.823,0.668
	c-2.425,0.67-3.603,1.616-3.603,2.894v9.571c0,1.224,1.248,2.171,3.672,2.727c1.665,0.389,3.604,0.558,5.818,0.558h11.578
	c1.871,0,3.671-0.223,5.335-0.614C253.209,35.829,254.388,34.938,254.388,33.769 M261.595,33.769c0,3.006-1.802,5.175-5.474,6.513
	c-2.564,1.058-6.032,1.614-10.327,1.614h-11.852c-3.952,0-7.486-0.556-10.673-1.614c-3.953-1.392-5.893-3.563-5.893-6.513v-9.571
	c0-2.894,1.939-5.118,5.82-6.62c2.913-1.171,6.446-1.726,10.675-1.726h11.92c10.533,0,15.803,2.727,15.803,8.292V33.769z"/>
<path fill="#FFFFFF" d="M177.41,20.95v-4.509c0-1.891-3.266-2.894-9.793-2.894h-26.604v11.466h26.604
	C174.145,25.013,177.41,23.621,177.41,20.95 M184.911,21.172c0,3.284-2.082,5.676-6.181,7.182
	c-3.195,1.056-7.018,1.557-11.529,1.557h-26.188v9.687c0,1.056-0.485,1.723-1.598,2.001c-0.277,0.112-1.388,0.168-3.265,0.168
	c-1.736,0-2.639-0.723-2.639-2.17V10.765c0-1.393,0.902-2.117,2.639-2.117h31.396c4.237,0,7.849,0.501,10.834,1.393
	c4.377,1.334,6.529,3.338,6.529,5.956V21.172L184.911,21.172z"/>
<path fill="#FFFFFF" d="M104.783,61.184c-0.318,1.334-0.072,2.897,0.243,3.48c0.314,0.58,1.34,1.098,2.119,1.098
	c0.8,0,1.938-0.377,2.512-0.945c0.576-0.568,1.373-1.931,1.725-3.408c0.3-1.243,0.075-2.426-0.244-3.001
	c-0.322-0.572-1.278-1.34-2.067-1.34c-0.75,0-1.962,0.345-2.558,0.927C105.921,58.575,105.106,59.84,104.783,61.184 M101.359,61.299
	c0.518-2.156,1.83-3.941,3.214-5.139c1.387-1.201,3.164-1.442,5.121-1.442c2.008,0,3.477,0.822,4.282,2.004
	c0.803,1.178,1.244,2.788,0.734,4.913c-0.37,1.544-0.999,2.77-1.708,3.754c-0.711,0.988-1.688,1.609-2.716,2.16
	c-1.03,0.55-2.254,0.675-3.594,0.675c-1.361,0-2.431-0.236-3.21-0.713c-0.777-0.474-1.677-1.223-1.986-2.252
	C101.189,64.233,100.988,62.843,101.359,61.299"/>
<path fill="#FFFFFF" d="M87.662,67.829l2.852-12.908l5.919,0.021c0.127,0,4.361-0.216,4.153,3.368
	c-0.149,2.608-1.294,2.9-3.593,4.112c1.157,1.923,1.556,2.959,3.085,5.407h-3.854c-0.427-1.223-2.265-4.681-2.275-4.681
	l-1.995-0.022l-1.014,4.722L87.662,67.829 M92.594,60.8h2.27c2.106,0,3.108-3.304,0.92-3.338l-2.375-0.045L92.594,60.8z"/>
<polygon fill="#FFFFFF" points="79.337,54.963 88.632,55.006 88.145,57.382 82.144,57.424 81.6,59.713 87.19,59.734 86.668,62.195 
	80.951,62.195 80.285,65.47 86.214,65.366 85.855,67.869 76.444,67.764 "/>
<polygon fill="#FFFFFF" points="65.401,54.921 68.791,54.942 67.639,59.647 72.517,59.774 73.563,54.963 76.929,55.006 
	73.991,67.829 70.648,67.849 71.93,62.213 67.051,62.172 65.705,67.849 62.378,67.829 "/>
<polygon fill="#FFFFFF" points="114.815,67.811 117.897,67.811 118.747,64.451 115.665,64.451 "/>
<rect x="127.174" y="50.028" fill="#00AEEF" width="28.576" height="21.85"/>
<rect x="161.642" y="50.028" fill="#00AEEF" width="28.576" height="21.85"/>
<rect x="196.336" y="50.026" fill="#005DAC" width="28.573" height="21.848"/>
<rect x="231.76" y="50.028" fill="#FFFFFF" width="28.575" height="21.85"/>
<path fill="#FFFFFF" d="M50.49,61.96h2.213c-0.024-0.761,0.519-1.146,1.611-1.142c0.904,0.019,1.409,0.309,1.513,0.856
	c0,0.705,0.014,1.367,0.029,2.027c-0.485-0.567-1.39-0.895-2.711-0.985c-2.091,0.196-3.101,1.161-3.024,2.9
	c0.075,1.52,1.161,2.327,3.252,2.413c1.099,0.05,1.936-0.276,2.524-1.013c0.016,0.319,0.016,0.608,0.016,0.898h2.039
	c0.016-2.205,0.016-4.395,0.016-6.585c-0.514-1.143-1.375-1.751-2.569-1.826c-1.051-0.029-2.087-0.029-3.124-0.029
	C50.981,59.837,50.401,60.661,50.49,61.96"/>
<path fill="#FFFFFF" d="M40.985,59.42h2.098c1.56,0,2.836,1.258,2.836,2.793v1.756h-5.673c-0.239,1.728,0.206,2.565,1.308,2.517
	c0.403-0.023,0.83-0.023,1.259-0.023c0.731,0.066,1.076-0.33,1.061-1.285h2.047v0.05c0,1.535-1.277,2.792-2.836,2.792h-2.097
	c-1.561,0-2.837-1.257-2.837-2.792v-3.014C38.148,60.678,39.424,59.42,40.985,59.42"/>
<path fill="#FFFFFF" d="M27.96,55.913v11.908h6.907c1.874,0.125,2.827-0.93,2.861-3.135c0.083-1.541-0.551-2.547-1.923-2.991
	c1.077-0.206,1.654-1.112,1.703-2.74c-0.116-1.934-1.184-2.958-3.207-3.088C32.161,55.874,30.024,55.881,27.96,55.913"/>
<path d="M30.254,57.916v3.038c1.191-0.025,2.312-0.025,3.429-0.025c0.971,0.016,1.438-0.471,1.43-1.431
	c-0.049-0.873-0.46-1.377-1.232-1.533C32.663,57.974,31.496,57.958,30.254,57.916"/>
<path d="M30.254,62.658v3.308c1.275-0.025,2.474-0.025,3.671-0.025c1.04,0.019,1.542-0.511,1.533-1.56
	c-0.053-0.95-0.493-1.498-1.322-1.669C32.835,62.719,31.585,62.703,30.254,62.658"/>
<path d="M43.872,62.805c0.107-1.291-0.46-1.909-1.727-1.873c-1.407-0.009-2.04,0.624-1.899,1.9
	C41.454,62.782,42.661,62.782,43.872,62.805"/>
<path d="M55.856,65.001c-0.411-0.727-1.313-0.972-2.708-0.723c-0.773,0.337-1.07,0.85-0.89,1.545
	c0.201,0.875,1.138,1.129,2.826,0.719C55.698,66.296,55.954,65.788,55.856,65.001"/>
<path fill="#FFFFFF" d="M265.438,38.954c1.681,0,3.046,1.362,3.046,3.045c0,1.681-1.365,3.046-3.046,3.046
	c-1.68,0-3.045-1.365-3.045-3.046C262.394,40.316,263.759,38.954,265.438,38.954"/>
<path d="M265.438,39.403c1.431,0,2.597,1.164,2.597,2.596c0,1.433-1.166,2.594-2.597,2.594s-2.593-1.162-2.593-2.594
	C262.846,40.567,264.008,39.403,265.438,39.403"/>
<path fill="#FFFFFF" d="M264.404,43.266v-2.879h1.283c0.258,0,0.453,0.023,0.585,0.076c0.136,0.052,0.24,0.143,0.325,0.275
	c0.079,0.127,0.119,0.274,0.119,0.432c0,0.205-0.065,0.377-0.199,0.519c-0.131,0.141-0.339,0.226-0.617,0.267
	c0.104,0.047,0.18,0.096,0.231,0.143c0.113,0.103,0.22,0.232,0.319,0.384l0.504,0.783h-0.481l-0.382-0.602
	c-0.115-0.172-0.205-0.304-0.276-0.394c-0.073-0.094-0.141-0.159-0.196-0.195c-0.057-0.035-0.112-0.062-0.173-0.075
	c-0.043-0.007-0.115-0.012-0.216-0.012h-0.442v1.277L264.404,43.266L264.404,43.266z"/>
<path d="M264.786,41.655h0.824c0.175,0,0.311-0.016,0.411-0.054c0.099-0.035,0.174-0.094,0.226-0.171
	c0.051-0.08,0.074-0.167,0.074-0.261c0-0.134-0.047-0.248-0.147-0.334c-0.099-0.088-0.255-0.133-0.472-0.133h-0.916V41.655"/>
</svg>
