<?xml version="1.0" encoding="utf-8"?>
<!-- Generator: Adobe Illustrator 16.0.3, SVG Export Plug-In . SVG Version: 6.00 Build 0)  -->
<!DOCTYPE svg PUBLIC "-//W3C//DTD SVG 1.1//EN" "http://www.w3.org/Graphics/SVG/1.1/DTD/svg11.dtd">
<svg version="1.1" id="Layer_1" xmlns="http://www.w3.org/2000/svg" xmlns:xlink="http://www.w3.org/1999/xlink" x="0px" y="0px"
	 width="32.34px" height="16.675px" viewBox="2 18.248 32.34 16.675" enable-background="new 2 18.248 32.34 16.675"
	 xml:space="preserve">
<path fill="#FFFFFF" d="M4,21.246c0.028-0.072,0.057-0.146,0.085-0.22c0.196-0.531,0.682-0.895,1.258-0.914
	c0.415-0.016,0.831-0.006,1.247-0.007c0.078,0,0.158,0,0.259,0c0-0.436,0-0.847,0-1.259c0-0.443,0.161-0.599,0.616-0.599
	c1.166,0,2.331,0,3.497,0c0.485,0,0.643,0.15,0.643,0.618c0,2.902,0.004,5.805-0.003,8.706c-0.002,0.809,0.212,1.548,0.708,2.191
	c0.741,0.961,1.738,1.45,2.967,1.455c2.933,0.011,5.865,0.004,8.795,0c0.267,0,0.531-0.041,0.827-0.064c0,0.075,0,0.149,0,0.228
	c0,0.803-0.005,1.606,0.004,2.409c0.004,0.227-0.071,0.408-0.215,0.573c-0.33,0.374-0.75,0.559-1.253,0.559
	c-3.533,0-7.064,0-10.599,0c-2.434,0-4.87-0.001-7.304,0c-0.774,0-1.262-0.352-1.497-1.079C4.032,33.828,4.013,33.812,4,33.794
	C4,29.613,4,25.429,4,21.246z M5.904,25.176c0,0.904,0,1.809,0,2.712c0.001,0.386,0.174,0.553,0.573,0.554
	c1.193,0.002,2.39,0.002,3.585,0c0.414,0,0.586-0.166,0.586-0.563c0.001-1.787,0.001-3.574,0-5.361c0-0.4-0.171-0.565-0.586-0.565
	c-1.188,0-2.375,0-3.562,0c-0.431,0-0.597,0.161-0.597,0.576C5.904,23.411,5.904,24.293,5.904,25.176z M6.351,30.751
	c-0.004,1.021,0.836,1.851,1.883,1.857c1.039,0.011,1.905-0.823,1.912-1.837c0.006-1.027-0.851-1.873-1.9-1.872
	C7.203,28.902,6.354,29.729,6.351,30.751z"/>
<path fill="#FFFFFF" d="M26.806,28.022c-0.036,0.131-0.07,0.26-0.112,0.392c-0.343,1.128-1.371,1.872-2.618,1.874
	c-2.301,0.005-4.603,0.002-6.904,0.002c-0.631,0-1.264,0.004-1.894-0.002c-1.563-0.014-2.723-1.151-2.724-2.673
	c-0.001-2.252-0.006-4.503,0.001-6.754c0.007-1.235,0.856-2.258,2.088-2.537c0.235-0.053,0.482-0.071,0.728-0.071
	c2.917-0.004,5.835-0.004,8.751,0c1.301,0.001,2.401,0.905,2.64,2.156c0.011,0.048,0.031,0.096,0.044,0.145
	C26.806,23.042,26.806,25.531,26.806,28.022z M24,23.572c0-2.033-1.718-3.708-3.801-3.703c-2.101,0.004-3.812,1.68-3.803,3.723
	c0.009,2.026,1.714,3.686,3.789,3.691C22.289,27.286,24.001,25.62,24,23.572z"/>
<path fill="#FFFFFF" d="M9.69,22.9c0,1.535,0,3.062,0,4.602c-0.945,0-1.876,0-2.825,0c0-1.532,0-3.06,0-4.602
	C7.804,22.9,8.741,22.9,9.69,22.9z"/>
<path fill="#FFFFFF" d="M8.256,31.677c-0.527,0.004-0.953-0.396-0.959-0.908c-0.008-0.513,0.406-0.929,0.93-0.936
	c0.536-0.009,0.97,0.399,0.973,0.918C9.204,31.26,8.782,31.674,8.256,31.677z"/>
<path fill="#FFFFFF" d="M20.199,20.802c1.58,0,2.858,1.245,2.854,2.785c-0.007,1.523-1.291,2.774-2.854,2.772
	c-1.582-0.004-2.852-1.25-2.845-2.795C17.356,22.027,18.619,20.802,20.199,20.802z"/>
</svg>
