<?xml version="1.0" encoding="utf-8"?>
<!-- Generator: Adobe Illustrator 16.0.3, SVG Export Plug-In . SVG Version: 6.00 Build 0)  -->
<!DOCTYPE svg PUBLIC "-//W3C//DTD SVG 1.1//EN" "http://www.w3.org/Graphics/SVG/1.1/DTD/svg11.dtd">
<svg version="1.1" id="Layer_1" xmlns="http://www.w3.org/2000/svg" xmlns:xlink="http://www.w3.org/1999/xlink" x="0px" y="0px"
	 width="60px" height="60px" viewBox="0 0 60 60" enable-background="new 0 0 60 60" xml:space="preserve">
<g display="none">
	
		<image display="inline" overflow="visible" width="486" height="316" id="PqEFnj_1_" xlink:href="15BBE2DB80C626C5.jpg"  transform="matrix(0.1235 0 0 0.1235 0 9.6289)">
	</image>
</g>
<polygon points="5.625,47.875 4.969,48.562 0.656,48.562 0.047,47.953 0.047,10.344 0.711,9.68 5.969,9.68 24.531,39.406 
	24.531,10.438 25.234,9.734 30.062,9.734 42.25,33.969 54.188,9.75 59.312,9.75 60.016,10.453 60.016,47.875 59.305,48.586 
	54.781,48.586 54.113,47.918 54.113,21.969 45.281,39.969 39.312,39.969 30.219,21.75 30.219,47.875 29.469,48.625 23.875,48.625 
	5.719,19.375 "/>
</svg>
